<svg xmlns="http://www.w3.org/2000/svg" viewBox="0 0 345 345" role="img" aria-label="Queen Cannabis">
  <defs>
    <style>
      rect { fill: #0a0612; }
      path { fill: #ff3ea5; }
      @media (prefers-color-scheme: light) {
        rect { fill: #fff5fb; }
        path { fill: #c7156f; }
      }
    </style>
  </defs>
  <rect width="345" height="345" rx="72" />
  <g transform="translate(0, 31.5)">
    <g transform="translate(0, 282) scale(0.1, -0.1)">
      <path d="M1581 2786 c-13 -14 -26 -40 -30 -58 -14 -68 27 -191 87 -260 l32 -36 -33 -36 c-20 -22 -43 -36 -57 -36 -43 0 -109 -40 -147 -90 l-38 -49 -97 -1 c-103 0 -268 -27 -362 -60 -153 -52 -299 -164 -356 -272 -24 -45 -27 -48 -95 -64 -173 -42 -341 -125 -391 -193 -52 -71 -84 -164 -84 -244 0 -105 38 -186 150 -317 66 -77 130 -170 130 -189 0 -9 -21 -25 -50 -38 -82 -36 -110 -105 -70 -171 28 -45 73 -62 170 -62 44 0 80 -4 80 -9 0 -11 -35 -39 -77 -62 -60 -33 -48 -90 21 -108 51 -13 46 -1 87 -190 l23 -103 35 5 c20 3 110 19 201 36 401 73 641 96 1015 96 384 0 595 -22 1102 -112 84 -15 155 -24 159 -21 3 4 16 63 29 133 24 129 35 155 64 155 31 0 61 30 61 61 0 23 -7 34 -31 47 -101 56 -103 78 -7 74 90 -5 139 9 172 49 47 55 29 125 -43 169 -83 50 -79 43 -53 92 12 24 54 80 93 124 133 151 168 224 169 346 0 136 -58 238 -181 318 -50 32 -205 91 -319 120 -40 10 -49 18 -70 58 -43 82 -144 173 -246 224 -127 63 -338 108 -511 108 -45 0 -52 4 -98 51 -56 57 -111 89 -151 89 -18 0 -39 12 -61 35 l-33 35 40 58 c67 99 93 166 87 225 -3 39 -11 56 -31 74 -34 29 -64 29 -108 -1 l-34 -23 -28 23 c-36 32 -85 32 -115 0z m372 -670 c43 -17 101 -85 115 -135 17 -56 15 -121 -7 -182 -11 -30 -89 -191 -173 -359 l-154 -306 -144 278 c-188 361 -210 410 -210 475 0 116 71 223 148 223 58 0 142 -63 179 -135 l16 -29 24 49 c29 58 56 91 98 116 36 22 64 24 108 5z m-791 -67 c-16 -24 -34 -59 -41 -78 -14 -43 -14 -158 0 -219 19 -79 111 -260 223 -439 58 -93 106 -173 106 -176 0 -3 -13 -8 -30 -11 -16 -3 -44 -9 -60 -12 -88 -17 -119 -104 -59 -163 43 -44 117 -58 197 -38 31 8 32 8 32 -25 0 -58 -11 -64 -185 -92 -214 -35 -230 -35 -255 6 -32 52 -27 68 20 68 52 0 103 21 124 51 20 29 21 102 1 133 -24 37 -86 59 -145 54 -61 -6 -49 -24 -143 207 -128 315 -120 291 -121 395 -1 85 2 101 27 152 30 60 85 115 152 151 58 31 179 86 183 82 2 -1 -10 -22 -26 -46z m1179 15 c102 -42 139 -63 189 -110 70 -65 94 -127 94 -239 0 -104 -13 -144 -136 -434 l-74 -175 -70 0 c-81 -1 -116 -18 -141 -71 -14 -29 -14 -41 -4 -74 16 -54 59 -83 128 -89 53 -4 54 -5 48 -31 -3 -14 -13 -37 -22 -50 -14 -22 -20 -23 -77 -18 -67 7 -335 53 -341 59 -2 2 -7 23 -11 47 l-7 44 29 -9 c57 -17 139 -10 178 16 64 44 76 112 26 153 -28 24 -40 28 -122 42 l-37 6 28 47 c15 26 63 103 106 172 163 262 215 385 215 507 0 84 -11 125 -50 186 -16 26 -26 47 -22 47 5 0 37 -12 73 -26z m-1801 -416 c16 -82 41 -143 105 -258 29 -52 70 -126 91 -165 21 -38 50 -92 66 -118 19 -33 24 -49 15 -52 -103 -32 -119 -40 -146 -70 -16 -19 -32 -43 -36 -55 -5 -15 -12 -19 -23 -15 -10 4 -47 10 -84 12 -54 5 -69 9 -73 24 -3 10 -29 53 -57 96 -28 43 -67 112 -87 153 -34 71 -36 81 -36 175 0 89 4 106 27 150 14 28 44 66 65 87 42 40 130 98 149 98 6 0 17 -28 24 -62z m2448 33 c202 -103 249 -332 112 -551 -22 -36 -57 -95 -78 -132 l-37 -66 -65 -4 c-36 -3 -72 -8 -80 -12 -10 -4 -21 5 -35 31 -23 43 -71 78 -129 95 -23 6 -44 14 -49 18 -4 3 31 71 79 151 138 232 185 333 200 436 7 48 11 63 20 63 2 0 30 -13 62 -29z m-2163 -906 l90 -2 3 -30 c2 -23 -2 -33 -15 -36 -10 -3 -87 -22 -172 -43 l-154 -37 -19 23 c-28 35 -22 46 38 70 30 13 63 34 71 47 13 20 21 23 42 17 14 -4 67 -8 116 -9z m1961 -12 c12 -12 45 -33 73 -47 28 -15 51 -30 51 -35 0 -5 -9 -19 -19 -32 l-19 -24 -154 39 c-84 21 -161 40 -170 43 -13 3 -18 15 -18 41 l0 37 117 0 c107 0 119 -2 139 -22z" />
    </g>
  </g>
</svg>
